{
    "asset" : {
        "generator" : "Khronos glTF Blender I/O v3.3.27",
        "version" : "2.0"
    },
    "scene" : 0,
    "scenes" : [
        {
            "name" : "Scene",
            "nodes" : [
                0
            ]
        }
    ],
    "nodes" : [
        {
            "mesh" : 0,
            "name" : "Steel Square",
            "rotation" : [
                0.5,
                -0.5,
                0.5,
                0.5
            ],
            "translation" : [
                0,
                0.08760955929756165,
                0
            ]
        }
    ],
    "materials" : [
        {
            "doubleSided" : true,
            "name" : "Stainless Steel Polished",
            "pbrMetallicRoughness" : {
                "baseColorFactor" : [
                    0.4669457674026489,
                    0.4828835725784302,
                    0.5488560795783997,
                    1
                ],
                "metallicFactor" : 0.8188976645469666,
                "roughnessFactor" : 0.6875
            }
        }
    ],
    "meshes" : [
        {
            "extras" : {
                "targetNames" : [
                    "frame_0000",
                    "frame_0001",
                    "frame_0002",
                    "frame_0003",
                    "frame_0004",
                    "frame_0005",
                    "frame_0006",
                    "frame_0007",
                    "frame_0008",
                    "frame_0009"
                ]
            },
            "name" : "Steel Square",
            "primitives" : [
                {
                    "attributes" : {
                        "POSITION" : 0,
                        "NORMAL" : 1
                    },
                    "indices" : 2,
                    "material" : 0,
                    "targets" : [
                        {
                            "POSITION" : 3,
                            "NORMAL" : 4
                        },
                        {
                            "POSITION" : 5,
                            "NORMAL" : 6
                        },
                        {
                            "POSITION" : 7,
                            "NORMAL" : 8
                        },
                        {
                            "POSITION" : 9,
                            "NORMAL" : 10
                        },
                        {
                            "POSITION" : 11,
                            "NORMAL" : 12
                        },
                        {
                            "POSITION" : 13,
                            "NORMAL" : 14
                        },
                        {
                            "POSITION" : 15,
                            "NORMAL" : 16
                        },
                        {
                            "POSITION" : 17,
                            "NORMAL" : 18
                        },
                        {
                            "POSITION" : 19,
                            "NORMAL" : 20
                        },
                        {
                            "POSITION" : 21,
                            "NORMAL" : 22
                        }
                    ]
                }
            ],
            "weights" : [
                1,
                0,
                0,
                0,
                0,
                0,
                0,
                0,
                0,
                0
            ]
        }
    ],
    "accessors" : [
        {
            "bufferView" : 0,
            "componentType" : 5126,
            "count" : 32,
            "max" : [
                0.00610999995842576,
                0.11999999731779099,
                0.006099999882280827
            ],
            "min" : [
                -0.00610999995842576,
                -0.11999999731779099,
                -0.006099999882280827
            ],
            "type" : "VEC3"
        },
        {
            "bufferView" : 1,
            "componentType" : 5126,
            "count" : 32,
            "type" : "VEC3"
        },
        {
            "bufferView" : 2,
            "componentType" : 5123,
            "count" : 60,
            "type" : "SCALAR"
        },
        {
            "bufferView" : 3,
            "componentType" : 5126,
            "count" : 32,
            "max" : [
                0,
                0,
                0
            ],
            "min" : [
                0,
                0,
                0
            ],
            "type" : "VEC3"
        },
        {
            "bufferView" : 4,
            "componentType" : 5126,
            "count" : 32,
            "type" : "VEC3"
        },
        {
            "bufferView" : 5,
            "componentType" : 5126,
            "count" : 32,
            "max" : [
                0,
                3.2491981983184814e-05,
                0
            ],
            "min" : [
                0,
                -3.2491981983184814e-05,
                -0.0003142007626593113
            ],
            "type" : "VEC3"
        },
        {
            "bufferView" : 6,
            "componentType" : 5126,
            "count" : 32,
            "type" : "VEC3"
        },
        {
            "bufferView" : 7,
            "componentType" : 5126,
            "count" : 32,
            "max" : [
                0,
                0.00012499094009399414,
                0
            ],
            "min" : [
                0,
                -0.00012499094009399414,
                -0.001157546415925026
            ],
            "type" : "VEC3"
        },
        {
            "bufferView" : 8,
            "componentType" : 5126,
            "count" : 32,
            "type" : "VEC3"
        },
        {
            "bufferView" : 9,
            "componentType" : 5126,
            "count" : 32,
            "max" : [
                0,
                0.0002728104591369629,
                0
            ],
            "min" : [
                0,
                -0.0002728104591369629,
                -0.0023799866903573275
            ],
            "type" : "VEC3"
        },
        {
            "bufferView" : 10,
            "componentType" : 5126,
            "count" : 32,
            "type" : "VEC3"
        },
        {
            "bufferView" : 11,
            "componentType" : 5126,
            "count" : 32,
            "max" : [
                0,
                0.00046931952238082886,
                0
            ],
            "min" : [
                0,
                -0.00046931952238082886,
                -0.0038321292959153652
            ],
            "type" : "VEC3"
        },
        {
            "bufferView" : 12,
            "componentType" : 5126,
            "count" : 32,
            "type" : "VEC3"
        },
        {
            "bufferView" : 13,
            "componentType" : 5126,
            "count" : 32,
            "max" : [
                0,
                0.0007008612155914307,
                0
            ],
            "min" : [
                0,
                -0.0007008612155914307,
                -0.005362540017813444
            ],
            "type" : "VEC3"
        },
        {
            "bufferView" : 14,
            "componentType" : 5126,
            "count" : 32,
            "type" : "VEC3"
        },
        {
            "bufferView" : 15,
            "componentType" : 5126,
            "count" : 32,
            "max" : [
                0,
                0.0009443610906600952,
                0
            ],
            "min" : [
                0,
                -0.0009443610906600952,
                -0.006819120608270168
            ],
            "type" : "VEC3"
        },
        {
            "bufferView" : 16,
            "componentType" : 5126,
            "count" : 32,
            "type" : "VEC3"
        },
        {
            "bufferView" : 17,
            "componentType" : 5126,
            "count" : 32,
            "max" : [
                0,
                0.0011674165725708008,
                0
            ],
            "min" : [
                0,
                -0.0011674165725708008,
                -0.008048979565501213
            ],
            "type" : "VEC3"
        },
        {
            "bufferView" : 18,
            "componentType" : 5126,
            "count" : 32,
            "type" : "VEC3"
        },
        {
            "bufferView" : 19,
            "componentType" : 5126,
            "count" : 32,
            "max" : [
                0,
                0.0013308897614479065,
                0
            ],
            "min" : [
                0,
                -0.0013308897614479065,
                -0.00889896135777235
            ],
            "type" : "VEC3"
        },
        {
            "bufferView" : 20,
            "componentType" : 5126,
            "count" : 32,
            "type" : "VEC3"
        },
        {
            "bufferView" : 21,
            "componentType" : 5126,
            "count" : 32,
            "max" : [
                0,
                0.0013938546180725098,
                0
            ],
            "min" : [
                0,
                -0.0013938546180725098,
                -0.009216157719492912
            ],
            "type" : "VEC3"
        },
        {
            "bufferView" : 22,
            "componentType" : 5126,
            "count" : 32,
            "type" : "VEC3"
        }
    ],
    "bufferViews" : [
        {
            "buffer" : 0,
            "byteLength" : 384,
            "byteOffset" : 0,
            "target" : 34962
        },
        {
            "buffer" : 0,
            "byteLength" : 384,
            "byteOffset" : 384,
            "target" : 34962
        },
        {
            "buffer" : 0,
            "byteLength" : 120,
            "byteOffset" : 768,
            "target" : 34963
        },
        {
            "buffer" : 0,
            "byteLength" : 384,
            "byteOffset" : 888,
            "target" : 34962
        },
        {
            "buffer" : 0,
            "byteLength" : 384,
            "byteOffset" : 1272,
            "target" : 34962
        },
        {
            "buffer" : 0,
            "byteLength" : 384,
            "byteOffset" : 1656,
            "target" : 34962
        },
        {
            "buffer" : 0,
            "byteLength" : 384,
            "byteOffset" : 2040,
            "target" : 34962
        },
        {
            "buffer" : 0,
            "byteLength" : 384,
            "byteOffset" : 2424,
            "target" : 34962
        },
        {
            "buffer" : 0,
            "byteLength" : 384,
            "byteOffset" : 2808,
            "target" : 34962
        },
        {
            "buffer" : 0,
            "byteLength" : 384,
            "byteOffset" : 3192,
            "target" : 34962
        },
        {
            "buffer" : 0,
            "byteLength" : 384,
            "byteOffset" : 3576,
            "target" : 34962
        },
        {
            "buffer" : 0,
            "byteLength" : 384,
            "byteOffset" : 3960,
            "target" : 34962
        },
        {
            "buffer" : 0,
            "byteLength" : 384,
            "byteOffset" : 4344,
            "target" : 34962
        },
        {
            "buffer" : 0,
            "byteLength" : 384,
            "byteOffset" : 4728,
            "target" : 34962
        },
        {
            "buffer" : 0,
            "byteLength" : 384,
            "byteOffset" : 5112,
            "target" : 34962
        },
        {
            "buffer" : 0,
            "byteLength" : 384,
            "byteOffset" : 5496,
            "target" : 34962
        },
        {
            "buffer" : 0,
            "byteLength" : 384,
            "byteOffset" : 5880,
            "target" : 34962
        },
        {
            "buffer" : 0,
            "byteLength" : 384,
            "byteOffset" : 6264,
            "target" : 34962
        },
        {
            "buffer" : 0,
            "byteLength" : 384,
            "byteOffset" : 6648,
            "target" : 34962
        },
        {
            "buffer" : 0,
            "byteLength" : 384,
            "byteOffset" : 7032,
            "target" : 34962
        },
        {
            "buffer" : 0,
            "byteLength" : 384,
            "byteOffset" : 7416,
            "target" : 34962
        },
        {
            "buffer" : 0,
            "byteLength" : 384,
            "byteOffset" : 7800,
            "target" : 34962
        },
        {
            "buffer" : 0,
            "byteLength" : 384,
            "byteOffset" : 8184,
            "target" : 34962
        }
    ],
    "buffers" : [
        {
            "byteLength" : 8568,
            "uri" : "3 Point Bend Test 1-10 Steel Square Only.bin"
        }
    ]
}
